<?xml version="1.0" encoding="UTF-8" standalone="no"?>
<!-- Created with Inkscape (http://www.inkscape.org/) -->

<svg
   xmlns:dc="http://purl.org/dc/elements/1.1/"
   xmlns:cc="http://creativecommons.org/ns#"
   xmlns:rdf="http://www.w3.org/1999/02/22-rdf-syntax-ns#"
   xmlns:svg="http://www.w3.org/2000/svg"
   xmlns="http://www.w3.org/2000/svg"
   xmlns:sodipodi="http://sodipodi.sourceforge.net/DTD/sodipodi-0.dtd"
   xmlns:inkscape="http://www.inkscape.org/namespaces/inkscape"
   width="16"
   height="16"
   id="svg2"
   version="1.1"
   inkscape:version="0.48.4 r9939"
   sodipodi:docname="notifyicon.svg">
  <defs
     id="defs4" />
  <sodipodi:namedview
     id="base"
     pagecolor="#ffffff"
     bordercolor="#666666"
     borderopacity="1.0"
     inkscape:pageopacity="0.0"
     inkscape:pageshadow="2"
     inkscape:zoom="5.6"
     inkscape:cx="1.4160023"
     inkscape:cy="-1.5859371"
     inkscape:document-units="px"
     inkscape:current-layer="layer1"
     showgrid="false"
     inkscape:window-width="1600"
     inkscape:window-height="837"
     inkscape:window-x="-8"
     inkscape:window-y="-8"
     inkscape:window-maximized="1" />
  <metadata
     id="metadata7">
    <rdf:RDF>
      <cc:Work
         rdf:about="">
        <dc:format>image/svg+xml</dc:format>
        <dc:type
           rdf:resource="http://purl.org/dc/dcmitype/StillImage" />
        <dc:title></dc:title>
      </cc:Work>
    </rdf:RDF>
  </metadata>
  <g
     inkscape:label="Layer 1"
     inkscape:groupmode="layer"
     id="layer1"
     transform="translate(0,-1036.3622)">
    <g
       id="g4387"
       transform="matrix(-0.44606985,0,0,0.48545059,35.632869,549.91448)"
       style="fill:#ffffff;fill-opacity:1;stroke:#7f7f7f;stroke-width:0.66102225000000003;stroke-miterlimit:4;stroke-opacity:1;stroke-dasharray:none">
      <path
         id="path4389"
         transform="matrix(-1.1795275,0,0,1.1795275,109.54563,986.59607)"
         d="m 44.84375,13.96875 a 1.3587731,1.3006335 0 0 0 -0.25,2.5625 c 2.781236,0.948261 5.077188,2.819976 6.46875,5.3125 3.096619,5.546458 0.919406,12.473347 -4.875,15.4375 a 1.3587731,1.3006335 0 1 0 1.28125,2.25 c 7.08958,-3.626707 9.78878,-12.120058 6,-18.90625 C 51.758949,17.562502 48.917285,15.227712 45.5,14.0625 a 1.3587731,1.3006335 0 0 0 -0.34375,-0.09375 1.3587731,1.3006335 0 0 0 -0.3125,0 z M 43.375,17.5625 a 0.72814776,0.68892902 0 0 0 -0.09375,1.375 c 2.431786,0.749792 4.412759,2.403466 5.5,4.59375 2.17829,4.388452 0.200711,9.626505 -4.4375,11.6875 a 0.72044481,0.68164097 0 1 0 0.59375,1.21875 c 5.342992,-2.374086 7.665534,-8.413505 5.15625,-13.46875 -1.256044,-2.53042 -3.565662,-4.47764 -6.375,-5.34375 A 0.72044481,0.68164097 0 0 0 43.625,17.59375 0.72579644,0.68670435 0 0 0 43.375,17.5625 z m -1.90625,2.5625 a 0.65101607,0.54336043 0 0 0 -0.125,1.0625 c 1.93117,0.52521 3.511581,1.715572 4.375,3.25 1.73022,3.074875 0.152889,6.712197 -3.53125,8.15625 a 0.65531298,0.54694679 0 0 0 0.53125,1 C 47.038424,31.90053 48.934942,27.605342 46.90625,24 45.890614,22.19504 44.021627,20.80529 41.75,20.1875 A 0.64965867,0.5422275 0 0 0 41.6875,20.15625 0.65101607,0.54336043 0 0 0 41.46875,20.125 z"
         style="font-size:medium;font-style:normal;font-variant:normal;font-weight:normal;font-stretch:normal;text-indent:0;text-align:start;text-decoration:none;line-height:normal;letter-spacing:normal;word-spacing:normal;text-transform:none;direction:ltr;block-progression:tb;writing-mode:lr-tb;text-anchor:start;baseline-shift:baseline;color:#000000;fill:#ffffff;fill-opacity:1;stroke:#7f7f7f;stroke-width:0.56041275999999995;stroke-miterlimit:4;stroke-opacity:1;stroke-dasharray:none;marker:none;visibility:visible;display:inline;overflow:visible;enable-background:accumulate;font-family:Sans;-inkscape-font-specification:Sans"
         inkscape:connector-curvature="0" />
    </g>
    <g
       transform="matrix(0.4339527,0,0,0.48545059,-19.170717,550.01673)"
       id="g4357"
       style="fill:#ffffff;fill-opacity:1;stroke:#7f7f7f;stroke-width:0.67018747000000001;stroke-miterlimit:4;stroke-opacity:1;stroke-dasharray:none">
      <path
         style="font-size:medium;font-style:normal;font-variant:normal;font-weight:normal;font-stretch:normal;text-indent:0;text-align:start;text-decoration:none;line-height:normal;letter-spacing:normal;word-spacing:normal;text-transform:none;direction:ltr;block-progression:tb;writing-mode:lr-tb;text-anchor:start;baseline-shift:baseline;color:#000000;fill:#ffffff;fill-opacity:1;stroke:#7f7f7f;stroke-width:0.56818299999999999;stroke-miterlimit:4;stroke-opacity:1;stroke-dasharray:none;marker:none;visibility:visible;display:inline;overflow:visible;enable-background:accumulate;font-family:Sans;-inkscape-font-specification:Sans"
         d="m 44.84375,13.96875 a 1.3587731,1.3006335 0 0 0 -0.25,2.5625 c 2.781236,0.948261 5.077188,2.819976 6.46875,5.3125 3.096619,5.546458 0.919406,12.473347 -4.875,15.4375 a 1.3587731,1.3006335 0 1 0 1.28125,2.25 c 7.08958,-3.626707 9.78878,-12.120058 6,-18.90625 C 51.758949,17.562502 48.917285,15.227712 45.5,14.0625 a 1.3587731,1.3006335 0 0 0 -0.34375,-0.09375 1.3587731,1.3006335 0 0 0 -0.3125,0 z M 43.375,17.5625 a 0.72814776,0.68892902 0 0 0 -0.09375,1.375 c 2.431786,0.749792 4.412759,2.403466 5.5,4.59375 2.17829,4.388452 0.200711,9.626505 -4.4375,11.6875 a 0.72044481,0.68164097 0 1 0 0.59375,1.21875 c 5.342992,-2.374086 7.665534,-8.413505 5.15625,-13.46875 -1.256044,-2.53042 -3.565662,-4.47764 -6.375,-5.34375 A 0.72044481,0.68164097 0 0 0 43.625,17.59375 0.72579644,0.68670435 0 0 0 43.375,17.5625 z m -1.90625,2.5625 a 0.65101607,0.54336043 0 0 0 -0.125,1.0625 c 1.93117,0.52521 3.511581,1.715572 4.375,3.25 1.73022,3.074875 0.152889,6.712197 -3.53125,8.15625 a 0.65531298,0.54694679 0 0 0 0.53125,1 C 47.038424,31.90053 48.934942,27.605342 46.90625,24 45.890614,22.19504 44.021627,20.80529 41.75,20.1875 A 0.64965867,0.5422275 0 0 0 41.6875,20.15625 0.65101607,0.54336043 0 0 0 41.46875,20.125 z"
         transform="matrix(-1.1795275,0,0,1.1795275,109.54563,986.59607)"
         id="path4359"
         inkscape:connector-curvature="0" />
    </g>
    <path
       sodipodi:type="arc"
       style="fill:#ffffff;fill-opacity:1;stroke:#7f7f7f;stroke-width:0.25000000000000000;stroke-miterlimit:4;stroke-opacity:1;stroke-dasharray:none"
       id="path3813"
       sodipodi:cx="7.65625"
       sodipodi:cy="7.6071429"
       sodipodi:rx="2.3660715"
       sodipodi:ry="2.3660715"
       d="m 10.022321,7.6071429 a 2.3660715,2.3660715 0 1 1 -4.7321425,0 2.3660715,2.3660715 0 1 1 4.7321425,0 z"
       transform="translate(0.20089286,1036.7193)" />
  </g>
</svg>
