<?xml version="1.0" encoding="UTF-8" standalone="no"?>
<!-- Created with Inkscape (http://www.inkscape.org/) -->

<svg
   xmlns:dc="http://purl.org/dc/elements/1.1/"
   xmlns:cc="http://creativecommons.org/ns#"
   xmlns:rdf="http://www.w3.org/1999/02/22-rdf-syntax-ns#"
   xmlns:svg="http://www.w3.org/2000/svg"
   xmlns="http://www.w3.org/2000/svg"
   xmlns:sodipodi="http://sodipodi.sourceforge.net/DTD/sodipodi-0.dtd"
   xmlns:inkscape="http://www.inkscape.org/namespaces/inkscape"
   width="128"
   height="64"
   id="svg3783"
   version="1.1"
   inkscape:version="0.48.4 r9939"
   sodipodi:docname="topicon.svg">
  <defs
     id="defs3785" />
  <sodipodi:namedview
     id="base"
     pagecolor="#ffffff"
     bordercolor="#666666"
     borderopacity="1.0"
     inkscape:pageopacity="0.0"
     inkscape:pageshadow="2"
     inkscape:zoom="5.6"
     inkscape:cx="71.161796"
     inkscape:cy="21.504032"
     inkscape:document-units="px"
     inkscape:current-layer="layer1"
     showgrid="false"
     inkscape:window-width="1600"
     inkscape:window-height="837"
     inkscape:window-x="-8"
     inkscape:window-y="-8"
     inkscape:window-maximized="1" />
  <metadata
     id="metadata3788">
    <rdf:RDF>
      <cc:Work
         rdf:about="">
        <dc:format>image/svg+xml</dc:format>
        <dc:type
           rdf:resource="http://purl.org/dc/dcmitype/StillImage" />
        <dc:title></dc:title>
      </cc:Work>
    </rdf:RDF>
  </metadata>
  <g
     inkscape:label="Layer 1"
     inkscape:groupmode="layer"
     id="layer1"
     transform="translate(0,-988.36218)">
    <path
       inkscape:connector-curvature="0"
       id="path3060"
       d="m 63.256203,990.34615 c -6.718663,-10e-4 -12.774035,1.85108 -18.96355,5.8027 -1.454815,0.92879 -2.761806,1.866 -5.716229,4.09255 -3.948471,2.9756 -5.356642,3.8932 -6.810781,4.4405 -0.781017,0.294 -1.21095,0.3604 -4.170975,0.6519 -2.084619,0.2054 -3.516569,0.3365 -4.569359,0.4949 l -0.392351,0 0,0.062 c -1.29196,0.2262 -1.943467,0.5294 -2.587492,1.167 -0.403267,0.3993 -0.561821,0.62 -0.77464,1.0825 -0.54338,1.1809 -0.532867,1.0747 -0.525143,4.9054 0.007,3.4505 -0.339662,5.1257 0.0342,13.7423 0.113144,2.6078 0.222424,5.3164 0.241445,6.02 0.03718,1.3757 0.101274,1.8815 0.329975,2.5916 0.784336,2.4353 2.931261,4.0323 6.331914,4.7101 0.366022,0.072 1.087197,0.1303 1.885289,0.151 1.120815,0.03 1.393607,0.016 2.062348,-0.1132 2.424765,-0.464 4.190713,0.038 10.794637,3.0744 4.470613,2.0551 6.501979,2.9112 8.790635,3.7021 3.918137,1.354 6.810906,1.9735 10.772504,2.3079 0.618438,0.053 4.509738,-0.018 5.193094,-0.095 4.685804,-0.5208 8.99549,-1.8393 14.032022,-4.2917 1.965034,-0.9569 3.492601,-1.7941 7.130697,-3.9074 3.923641,-2.2792 4.348863,-2.5157 5.682023,-3.1671 1.836326,-0.8972 3.002246,-1.298 4.271581,-1.4667 0.696761,-0.092 1.251661,-0.045 2.038201,0.1791 2.711172,0.7694 6.040252,0.3599 7.909362,-0.9738 0.54529,-0.3891 1.17912,-1.0684 1.39636,-1.497 0.44006,-0.8685 0.41983,-0.502 0.42052,-7.8189 0,-7.1197 0.32618,-9.7032 -0.012,-15.3076 -0.12496,-2.0702 -0.19564,-2.3624 -0.91347,-3.7504 -0.21753,-0.4207 -0.45957,-0.8047 -0.72434,-1.155 l 0,-0.1529 -0.11871,0 c -0.96881,-1.2115 -2.24257,-1.9799 -3.8491,-2.3258 -0.51064,-0.1106 -0.91044,-0.1423 -1.74243,-0.141 -1.182129,0 -1.94326,0.104 -3.285673,0.4427 -1.44507,0.3648 -2.195149,0.2724 -3.651871,-0.4548 -1.084503,-0.5412 -1.937817,-1.1343 -4.372175,-3.0402 -4.195531,-3.28442 -6.36739,-4.7126 -9.430474,-6.20303 -5.114618,-2.48866 -10.755893,-3.75932 -16.706031,-3.76051 z m -40.641354,27.90095 0.01811,0 0,8.505 -0.01811,0 0,-4.2515 0,-4.2535 z"
       style="fill:#000000;fill-opacity:1;opacity:0.26548673" />
    <path
       sodipodi:type="arc"
       style="fill:none;stroke:#ffffff;stroke-width:2.32599092;stroke-linecap:round;stroke-linejoin:round;stroke-miterlimit:4;stroke-opacity:1;stroke-dasharray:none"
       id="path4314"
       sodipodi:cx="63.035713"
       sodipodi:cy="31.5"
       sodipodi:rx="8.3928576"
       sodipodi:ry="8.3928576"
       d="M 59.467956,39.096787 A 8.3928576,8.3928576 0 0 1 60.435295,23.520158"
       transform="matrix(1.0810461,0,0,0.97939258,-4.1594471,987.84575)"
       sodipodi:start="2.0098625"
       sodipodi:end="4.3973673"
       sodipodi:open="true" />
    <path
       sodipodi:type="arc"
       style="fill:none;stroke:#ffffff;stroke-width:1.72438133;stroke-linecap:round;stroke-linejoin:round;stroke-miterlimit:4;stroke-opacity:1;stroke-dasharray:none"
       id="path4316"
       sodipodi:cx="63.035713"
       sodipodi:cy="31.5"
       sodipodi:rx="8.3928576"
       sodipodi:ry="8.3928576"
       d="M 59.467956,39.096787 A 8.3928576,8.3928576 0 0 1 60.435295,23.520158"
       transform="matrix(1.800007,0,0,1.5954377,-49.845488,968.35861)"
       sodipodi:start="2.0098625"
       sodipodi:end="4.3973673"
       sodipodi:open="true" />
    <path
       sodipodi:type="arc"
       style="fill:none;stroke:#ffffff;stroke-width:1.72438133;stroke-linecap:round;stroke-linejoin:round;stroke-miterlimit:4;stroke-opacity:1;stroke-dasharray:none"
       id="path4318"
       sodipodi:cx="63.035713"
       sodipodi:cy="31.5"
       sodipodi:rx="8.3928576"
       sodipodi:ry="8.3928576"
       d="M 59.467956,39.096787 A 8.3928576,8.3928576 0 0 1 60.435295,23.520158"
       transform="matrix(-1.7581416,0,0,1.5583304,175.69438,970.18939)"
       sodipodi:start="2.0098625"
       sodipodi:end="4.3973673"
       sodipodi:open="true" />
    <path
       sodipodi:open="true"
       sodipodi:end="4.3973673"
       sodipodi:start="2.0098625"
       transform="matrix(-0.97626563,0,0,0.91669246,126.97694,990.44718)"
       d="M 59.467956,39.096787 A 8.3928576,8.3928576 0 0 1 60.435295,23.520158"
       sodipodi:ry="8.3928576"
       sodipodi:rx="8.3928576"
       sodipodi:cy="31.5"
       sodipodi:cx="63.035713"
       id="path4312"
       style="fill:none;stroke:#ffffff;stroke-width:2.29662728;stroke-linecap:round;stroke-linejoin:round;stroke-miterlimit:4;stroke-opacity:1;stroke-dasharray:none"
       sodipodi:type="arc" />
    <path
       style="fill:#ffffff;fill-opacity:1;stroke:none"
       d="m 64.299561,1018.5283 -3.699398,15.9101 6.998861,0 z"
       id="path4320"
       inkscape:connector-curvature="0" />
  </g>
</svg>
